<mxfile host="app.diagrams.net" agent="Mozilla/5.0 (Windows NT 10.0; Win64; x64) AppleWebKit/537.36 (KHTML, like Gecko) Chrome/129.0.0.0 Safari/537.36 Edg/129.0.0.0" version="24.7.17">
  <diagram id="prtHgNgQTEPvFCAcTncT" name="Page-1">
    <mxGraphModel dx="1209" dy="718" grid="1" gridSize="10" guides="1" tooltips="1" connect="1" arrows="1" fold="1" page="1" pageScale="1" pageWidth="827" pageHeight="1169" math="0" shadow="0">
      <root>
        <mxCell id="0" />
        <mxCell id="1" parent="0" />
        <mxCell id="hu3fXtgD86G4Ef5RLEv7-9" value="Containerized Microservices on PaaS or Kubernetes" style="text;strokeColor=none;align=center;fillColor=none;html=1;verticalAlign=middle;whiteSpace=wrap;rounded=0;" vertex="1" parent="1">
          <mxGeometry x="260" y="480" width="320" height="30" as="geometry" />
        </mxCell>
        <mxCell id="hu3fXtgD86G4Ef5RLEv7-10" value="" style="rounded=1;whiteSpace=wrap;html=1;" vertex="1" parent="1">
          <mxGeometry x="341" y="370" width="130" height="30" as="geometry" />
        </mxCell>
        <mxCell id="hu3fXtgD86G4Ef5RLEv7-11" value="API Gateway" style="text;strokeColor=none;align=center;fillColor=none;html=1;verticalAlign=middle;whiteSpace=wrap;rounded=0;" vertex="1" parent="1">
          <mxGeometry x="353" y="375" width="106" height="20" as="geometry" />
        </mxCell>
        <mxCell id="hu3fXtgD86G4Ef5RLEv7-12" value="" style="rounded=0;whiteSpace=wrap;html=1;" vertex="1" parent="1">
          <mxGeometry x="266" y="260" width="120" height="60" as="geometry" />
        </mxCell>
        <mxCell id="hu3fXtgD86G4Ef5RLEv7-13" value="" style="rounded=0;whiteSpace=wrap;html=1;" vertex="1" parent="1">
          <mxGeometry x="440.83" y="260" width="120" height="60" as="geometry" />
        </mxCell>
        <mxCell id="hu3fXtgD86G4Ef5RLEv7-14" value="Broswer (Classic UI)" style="text;html=1;align=center;verticalAlign=middle;whiteSpace=wrap;rounded=0;" vertex="1" parent="1">
          <mxGeometry x="281" y="275" width="90" height="30" as="geometry" />
        </mxCell>
        <mxCell id="hu3fXtgD86G4Ef5RLEv7-15" value="Broswer (NextGen UI)" style="text;html=1;align=center;verticalAlign=middle;whiteSpace=wrap;rounded=0;" vertex="1" parent="1">
          <mxGeometry x="455.83" y="275" width="90" height="30" as="geometry" />
        </mxCell>
        <mxCell id="hu3fXtgD86G4Ef5RLEv7-16" value="" style="endArrow=classic;html=1;rounded=0;exitX=0.75;exitY=1;exitDx=0;exitDy=0;" edge="1" parent="1" source="hu3fXtgD86G4Ef5RLEv7-12">
          <mxGeometry width="50" height="50" relative="1" as="geometry">
            <mxPoint x="401" y="250" as="sourcePoint" />
            <mxPoint x="357" y="370" as="targetPoint" />
          </mxGeometry>
        </mxCell>
        <mxCell id="hu3fXtgD86G4Ef5RLEv7-17" value="" style="endArrow=classic;html=1;rounded=0;exitX=0.149;exitY=1.023;exitDx=0;exitDy=0;exitPerimeter=0;entryX=0.902;entryY=-0.016;entryDx=0;entryDy=0;entryPerimeter=0;" edge="1" parent="1" source="hu3fXtgD86G4Ef5RLEv7-13" target="hu3fXtgD86G4Ef5RLEv7-10">
          <mxGeometry width="50" height="50" relative="1" as="geometry">
            <mxPoint x="391" y="400" as="sourcePoint" />
            <mxPoint x="471" y="360" as="targetPoint" />
          </mxGeometry>
        </mxCell>
        <mxCell id="hu3fXtgD86G4Ef5RLEv7-18" value="" style="endArrow=none;dashed=1;html=1;rounded=0;" edge="1" parent="1">
          <mxGeometry width="50" height="50" relative="1" as="geometry">
            <mxPoint x="160" y="720" as="sourcePoint" />
            <mxPoint x="160" y="480" as="targetPoint" />
          </mxGeometry>
        </mxCell>
        <mxCell id="hu3fXtgD86G4Ef5RLEv7-19" value="" style="endArrow=none;dashed=1;html=1;rounded=0;" edge="1" parent="1">
          <mxGeometry width="50" height="50" relative="1" as="geometry">
            <mxPoint x="640" y="480" as="sourcePoint" />
            <mxPoint x="160" y="480" as="targetPoint" />
          </mxGeometry>
        </mxCell>
        <mxCell id="hu3fXtgD86G4Ef5RLEv7-20" value="" style="endArrow=none;dashed=1;html=1;rounded=0;" edge="1" parent="1">
          <mxGeometry width="50" height="50" relative="1" as="geometry">
            <mxPoint x="640" y="720" as="sourcePoint" />
            <mxPoint x="640" y="480" as="targetPoint" />
          </mxGeometry>
        </mxCell>
        <mxCell id="hu3fXtgD86G4Ef5RLEv7-21" value="" style="endArrow=none;dashed=1;html=1;rounded=0;" edge="1" parent="1">
          <mxGeometry width="50" height="50" relative="1" as="geometry">
            <mxPoint x="160" y="720" as="sourcePoint" />
            <mxPoint x="640" y="720" as="targetPoint" />
          </mxGeometry>
        </mxCell>
        <mxCell id="hu3fXtgD86G4Ef5RLEv7-118" style="edgeStyle=orthogonalEdgeStyle;rounded=0;orthogonalLoop=1;jettySize=auto;html=1;exitX=0.5;exitY=1;exitDx=0;exitDy=0;entryX=0;entryY=0;entryDx=0;entryDy=0;" edge="1" parent="1" source="hu3fXtgD86G4Ef5RLEv7-22" target="hu3fXtgD86G4Ef5RLEv7-109">
          <mxGeometry relative="1" as="geometry" />
        </mxCell>
        <mxCell id="hu3fXtgD86G4Ef5RLEv7-22" value="" style="rounded=1;whiteSpace=wrap;html=1;" vertex="1" parent="1">
          <mxGeometry x="370" y="564.5" width="100" height="59.5" as="geometry" />
        </mxCell>
        <mxCell id="hu3fXtgD86G4Ef5RLEv7-23" value="Mailer Service" style="text;html=1;align=center;verticalAlign=middle;whiteSpace=wrap;rounded=0;" vertex="1" parent="1">
          <mxGeometry x="382.5" y="579.25" width="75" height="30" as="geometry" />
        </mxCell>
        <mxCell id="hu3fXtgD86G4Ef5RLEv7-24" value="" style="rounded=1;whiteSpace=wrap;html=1;arcSize=22;" vertex="1" parent="1">
          <mxGeometry x="200" y="574.25" width="60" height="40" as="geometry" />
        </mxCell>
        <mxCell id="hu3fXtgD86G4Ef5RLEv7-25" value="Scheduler Service" style="text;html=1;align=center;verticalAlign=middle;whiteSpace=wrap;rounded=0;" vertex="1" parent="1">
          <mxGeometry x="205" y="579.25" width="50" height="30" as="geometry" />
        </mxCell>
        <mxCell id="hu3fXtgD86G4Ef5RLEv7-27" value="" style="rounded=1;whiteSpace=wrap;html=1;" vertex="1" parent="1">
          <mxGeometry x="200" y="650" width="60" height="42" as="geometry" />
        </mxCell>
        <mxCell id="hu3fXtgD86G4Ef5RLEv7-28" value="Worker Service" style="text;html=1;align=center;verticalAlign=middle;whiteSpace=wrap;rounded=0;" vertex="1" parent="1">
          <mxGeometry x="200" y="657" width="60" height="30" as="geometry" />
        </mxCell>
        <mxCell id="hu3fXtgD86G4Ef5RLEv7-29" value="" style="endArrow=classic;html=1;rounded=0;exitX=1;exitY=0.5;exitDx=0;exitDy=0;entryX=0;entryY=0.5;entryDx=0;entryDy=0;" edge="1" parent="1" source="hu3fXtgD86G4Ef5RLEv7-24" target="hu3fXtgD86G4Ef5RLEv7-22">
          <mxGeometry width="50" height="50" relative="1" as="geometry">
            <mxPoint x="285" y="592" as="sourcePoint" />
            <mxPoint x="365" y="594" as="targetPoint" />
          </mxGeometry>
        </mxCell>
        <mxCell id="hu3fXtgD86G4Ef5RLEv7-30" value="&lt;font style=&quot;font-size: 8px;&quot;&gt;Schedule Email Jobs&lt;/font&gt;" style="text;html=1;align=center;verticalAlign=middle;whiteSpace=wrap;rounded=0;" vertex="1" parent="1">
          <mxGeometry x="250" y="582" width="115" height="10" as="geometry" />
        </mxCell>
        <mxCell id="hu3fXtgD86G4Ef5RLEv7-32" value="" style="endArrow=classic;html=1;rounded=0;exitX=0.5;exitY=1;exitDx=0;exitDy=0;entryX=0.5;entryY=0;entryDx=0;entryDy=0;" edge="1" parent="1" source="hu3fXtgD86G4Ef5RLEv7-24" target="hu3fXtgD86G4Ef5RLEv7-27">
          <mxGeometry width="50" height="50" relative="1" as="geometry">
            <mxPoint x="395" y="660" as="sourcePoint" />
            <mxPoint x="445" y="610" as="targetPoint" />
          </mxGeometry>
        </mxCell>
        <mxCell id="hu3fXtgD86G4Ef5RLEv7-33" value="" style="endArrow=classic;html=1;rounded=0;exitX=1;exitY=0.5;exitDx=0;exitDy=0;entryX=0.014;entryY=0.948;entryDx=0;entryDy=0;entryPerimeter=0;" edge="1" parent="1" source="hu3fXtgD86G4Ef5RLEv7-28" target="hu3fXtgD86G4Ef5RLEv7-22">
          <mxGeometry width="50" height="50" relative="1" as="geometry">
            <mxPoint x="375" y="660" as="sourcePoint" />
            <mxPoint x="395" y="700" as="targetPoint" />
          </mxGeometry>
        </mxCell>
        <mxCell id="hu3fXtgD86G4Ef5RLEv7-34" value="&lt;p style=&quot;line-height: 30%;&quot;&gt;&lt;font style=&quot;font-size: 6px;&quot;&gt;Task Queue Assignment&lt;/font&gt;&lt;/p&gt;" style="text;html=1;align=center;verticalAlign=middle;whiteSpace=wrap;rounded=0;" vertex="1" parent="1">
          <mxGeometry x="220" y="614.25" width="60" height="30" as="geometry" />
        </mxCell>
        <mxCell id="hu3fXtgD86G4Ef5RLEv7-35" value="&lt;font style=&quot;font-size: 8px;&quot;&gt;Job Processing Data&lt;/font&gt;" style="text;html=1;align=center;verticalAlign=middle;whiteSpace=wrap;rounded=0;rotation=336;" vertex="1" parent="1">
          <mxGeometry x="270" y="627" width="80" height="30" as="geometry" />
        </mxCell>
        <mxCell id="hu3fXtgD86G4Ef5RLEv7-36" value="" style="rounded=1;whiteSpace=wrap;html=1;" vertex="1" parent="1">
          <mxGeometry x="200" y="500" width="60" height="40" as="geometry" />
        </mxCell>
        <mxCell id="hu3fXtgD86G4Ef5RLEv7-37" value="Auth Service" style="text;html=1;align=center;verticalAlign=middle;whiteSpace=wrap;rounded=0;" vertex="1" parent="1">
          <mxGeometry x="200" y="505" width="60" height="30" as="geometry" />
        </mxCell>
        <mxCell id="hu3fXtgD86G4Ef5RLEv7-38" value="" style="endArrow=classic;html=1;rounded=0;entryX=0.5;entryY=0;entryDx=0;entryDy=0;exitX=0.25;exitY=1;exitDx=0;exitDy=0;" edge="1" parent="1" source="hu3fXtgD86G4Ef5RLEv7-10" target="hu3fXtgD86G4Ef5RLEv7-36">
          <mxGeometry width="50" height="50" relative="1" as="geometry">
            <mxPoint x="330" y="560" as="sourcePoint" />
            <mxPoint x="380" y="510" as="targetPoint" />
          </mxGeometry>
        </mxCell>
        <mxCell id="hu3fXtgD86G4Ef5RLEv7-39" value="&lt;font style=&quot;font-size: 8px;&quot;&gt;OAuth Authentication&lt;/font&gt;" style="text;html=1;align=center;verticalAlign=middle;whiteSpace=wrap;rounded=0;rotation=324;" vertex="1" parent="1">
          <mxGeometry x="225" y="430" width="140" height="30" as="geometry" />
        </mxCell>
        <mxCell id="hu3fXtgD86G4Ef5RLEv7-40" value="" style="endArrow=classic;html=1;rounded=0;exitX=1;exitY=1;exitDx=0;exitDy=0;entryX=0.018;entryY=0.083;entryDx=0;entryDy=0;entryPerimeter=0;" edge="1" parent="1" source="hu3fXtgD86G4Ef5RLEv7-36" target="hu3fXtgD86G4Ef5RLEv7-22">
          <mxGeometry width="50" height="50" relative="1" as="geometry">
            <mxPoint x="320" y="570" as="sourcePoint" />
            <mxPoint x="370" y="520" as="targetPoint" />
          </mxGeometry>
        </mxCell>
        <mxCell id="hu3fXtgD86G4Ef5RLEv7-41" value="&lt;font style=&quot;font-size: 8px;&quot;&gt;Token Verification&lt;/font&gt;" style="text;html=1;align=center;verticalAlign=middle;whiteSpace=wrap;rounded=0;rotation=15;" vertex="1" parent="1">
          <mxGeometry x="260" y="530" width="100" height="30" as="geometry" />
        </mxCell>
        <mxCell id="hu3fXtgD86G4Ef5RLEv7-42" value="" style="rounded=1;whiteSpace=wrap;html=1;" vertex="1" parent="1">
          <mxGeometry x="305" y="673.14" width="60" height="42" as="geometry" />
        </mxCell>
        <mxCell id="hu3fXtgD86G4Ef5RLEv7-43" value="&lt;font style=&quot;font-size: 9px;&quot;&gt;Mass Import/Export Service&lt;/font&gt;" style="text;html=1;align=center;verticalAlign=middle;whiteSpace=wrap;rounded=0;fontSize=9;" vertex="1" parent="1">
          <mxGeometry x="305" y="680.14" width="60" height="30" as="geometry" />
        </mxCell>
        <mxCell id="hu3fXtgD86G4Ef5RLEv7-47" value="Batch Email Processing" style="text;html=1;align=center;verticalAlign=middle;whiteSpace=wrap;rounded=0;spacingTop=0;spacing=5;fontSize=6;rotation=297;" vertex="1" parent="1">
          <mxGeometry x="320" y="640" width="60" height="30" as="geometry" />
        </mxCell>
        <mxCell id="hu3fXtgD86G4Ef5RLEv7-48" value="" style="rounded=1;whiteSpace=wrap;html=1;" vertex="1" parent="1">
          <mxGeometry x="564.5" y="490" width="60" height="50" as="geometry" />
        </mxCell>
        <mxCell id="hu3fXtgD86G4Ef5RLEv7-50" value="" style="endArrow=none;dashed=1;html=1;rounded=0;exitX=0;exitY=1;exitDx=0;exitDy=0;entryX=0.972;entryY=0.049;entryDx=0;entryDy=0;entryPerimeter=0;" edge="1" parent="1" source="hu3fXtgD86G4Ef5RLEv7-48" target="hu3fXtgD86G4Ef5RLEv7-22">
          <mxGeometry width="50" height="50" relative="1" as="geometry">
            <mxPoint x="584.5" y="564.5" as="sourcePoint" />
            <mxPoint x="520" y="610" as="targetPoint" />
            <Array as="points" />
          </mxGeometry>
        </mxCell>
        <mxCell id="hu3fXtgD86G4Ef5RLEv7-51" value="(Future) Document Services" style="text;html=1;align=center;verticalAlign=middle;whiteSpace=wrap;rounded=0;fontSize=10;" vertex="1" parent="1">
          <mxGeometry x="564.5" y="499.25" width="60" height="30" as="geometry" />
        </mxCell>
        <mxCell id="hu3fXtgD86G4Ef5RLEv7-53" value="Future Integration" style="text;html=1;align=center;verticalAlign=middle;whiteSpace=wrap;rounded=0;fontSize=7;rotation=344;" vertex="1" parent="1">
          <mxGeometry x="449.83" y="534.5" width="120" height="30" as="geometry" />
        </mxCell>
        <mxCell id="hu3fXtgD86G4Ef5RLEv7-55" value="" style="rounded=1;whiteSpace=wrap;html=1;" vertex="1" parent="1">
          <mxGeometry x="554" y="640" width="70" height="50" as="geometry" />
        </mxCell>
        <mxCell id="hu3fXtgD86G4Ef5RLEv7-56" value="Archiving Service" style="text;html=1;align=center;verticalAlign=middle;whiteSpace=wrap;rounded=0;" vertex="1" parent="1">
          <mxGeometry x="559" y="648" width="60" height="30" as="geometry" />
        </mxCell>
        <mxCell id="hu3fXtgD86G4Ef5RLEv7-58" value="" style="endArrow=classic;html=1;rounded=0;exitX=0.957;exitY=0.983;exitDx=0;exitDy=0;exitPerimeter=0;entryX=0;entryY=0;entryDx=0;entryDy=0;" edge="1" parent="1" source="hu3fXtgD86G4Ef5RLEv7-22" target="hu3fXtgD86G4Ef5RLEv7-55">
          <mxGeometry width="50" height="50" relative="1" as="geometry">
            <mxPoint x="430" y="640" as="sourcePoint" />
            <mxPoint x="530" y="700" as="targetPoint" />
          </mxGeometry>
        </mxCell>
        <mxCell id="hu3fXtgD86G4Ef5RLEv7-59" value="Archive Emails" style="text;html=1;align=center;verticalAlign=middle;whiteSpace=wrap;rounded=0;fontSize=7;rotation=11;" vertex="1" parent="1">
          <mxGeometry x="485.16" y="624" width="49.34" height="3.79" as="geometry" />
        </mxCell>
        <mxCell id="hu3fXtgD86G4Ef5RLEv7-65" style="edgeStyle=orthogonalEdgeStyle;rounded=0;orthogonalLoop=1;jettySize=auto;html=1;exitX=0.128;exitY=-0.004;exitDx=0;exitDy=0;entryX=0;entryY=0.5;entryDx=0;entryDy=0;exitPerimeter=0;" edge="1" parent="1" source="hu3fXtgD86G4Ef5RLEv7-60" target="hu3fXtgD86G4Ef5RLEv7-24">
          <mxGeometry relative="1" as="geometry" />
        </mxCell>
        <mxCell id="hu3fXtgD86G4Ef5RLEv7-60" value="" style="rounded=1;whiteSpace=wrap;html=1;" vertex="1" parent="1">
          <mxGeometry x="170" y="740" width="70" height="50" as="geometry" />
        </mxCell>
        <mxCell id="hu3fXtgD86G4Ef5RLEv7-61" value="RabbitMQ" style="text;html=1;align=center;verticalAlign=middle;whiteSpace=wrap;rounded=0;" vertex="1" parent="1">
          <mxGeometry x="175" y="750" width="60" height="30" as="geometry" />
        </mxCell>
        <mxCell id="hu3fXtgD86G4Ef5RLEv7-62" value="" style="rounded=1;whiteSpace=wrap;html=1;" vertex="1" parent="1">
          <mxGeometry x="260" y="740" width="70" height="50" as="geometry" />
        </mxCell>
        <mxCell id="hu3fXtgD86G4Ef5RLEv7-63" value="Kafka" style="text;html=1;align=center;verticalAlign=middle;whiteSpace=wrap;rounded=0;" vertex="1" parent="1">
          <mxGeometry x="265" y="750" width="60" height="30" as="geometry" />
        </mxCell>
        <mxCell id="hu3fXtgD86G4Ef5RLEv7-64" style="edgeStyle=orthogonalEdgeStyle;rounded=0;orthogonalLoop=1;jettySize=auto;html=1;exitX=0.5;exitY=0;exitDx=0;exitDy=0;entryX=0.078;entryY=0.921;entryDx=0;entryDy=0;entryPerimeter=0;" edge="1" parent="1" source="hu3fXtgD86G4Ef5RLEv7-60" target="hu3fXtgD86G4Ef5RLEv7-27">
          <mxGeometry relative="1" as="geometry" />
        </mxCell>
        <mxCell id="hu3fXtgD86G4Ef5RLEv7-68" value="" style="endArrow=classic;html=1;rounded=0;entryX=0.1;entryY=1.021;entryDx=0;entryDy=0;entryPerimeter=0;" edge="1" parent="1" target="hu3fXtgD86G4Ef5RLEv7-22">
          <mxGeometry width="50" height="50" relative="1" as="geometry">
            <mxPoint x="330" y="760" as="sourcePoint" />
            <mxPoint x="390" y="630" as="targetPoint" />
            <Array as="points">
              <mxPoint x="380" y="760" />
            </Array>
          </mxGeometry>
        </mxCell>
        <mxCell id="hu3fXtgD86G4Ef5RLEv7-70" value="" style="endArrow=classic;html=1;rounded=0;exitX=0.5;exitY=1;exitDx=0;exitDy=0;entryX=0.199;entryY=1.022;entryDx=0;entryDy=0;entryPerimeter=0;" edge="1" parent="1" source="hu3fXtgD86G4Ef5RLEv7-60" target="hu3fXtgD86G4Ef5RLEv7-22">
          <mxGeometry width="50" height="50" relative="1" as="geometry">
            <mxPoint x="220" y="850" as="sourcePoint" />
            <mxPoint x="420" y="640" as="targetPoint" />
            <Array as="points">
              <mxPoint x="205" y="810" />
              <mxPoint x="390" y="810" />
            </Array>
          </mxGeometry>
        </mxCell>
        <mxCell id="hu3fXtgD86G4Ef5RLEv7-71" value="" style="endArrow=classic;html=1;rounded=0;exitX=0.286;exitY=0.998;exitDx=0;exitDy=0;entryX=0;entryY=0.75;entryDx=0;entryDy=0;exitPerimeter=0;" edge="1" parent="1" source="hu3fXtgD86G4Ef5RLEv7-62" target="hu3fXtgD86G4Ef5RLEv7-24">
          <mxGeometry width="50" height="50" relative="1" as="geometry">
            <mxPoint x="400" y="720" as="sourcePoint" />
            <mxPoint x="120" y="790" as="targetPoint" />
            <Array as="points">
              <mxPoint x="280" y="800" />
              <mxPoint x="120" y="800" />
              <mxPoint x="120" y="604" />
            </Array>
          </mxGeometry>
        </mxCell>
        <mxCell id="hu3fXtgD86G4Ef5RLEv7-72" value="" style="endArrow=classic;html=1;rounded=0;exitX=0;exitY=0;exitDx=0;exitDy=0;entryX=0.75;entryY=1;entryDx=0;entryDy=0;" edge="1" parent="1" source="hu3fXtgD86G4Ef5RLEv7-62" target="hu3fXtgD86G4Ef5RLEv7-27">
          <mxGeometry width="50" height="50" relative="1" as="geometry">
            <mxPoint x="300" y="730" as="sourcePoint" />
            <mxPoint x="350" y="680" as="targetPoint" />
          </mxGeometry>
        </mxCell>
        <mxCell id="hu3fXtgD86G4Ef5RLEv7-73" value="&lt;p style=&quot;line-height: 61%;&quot;&gt;&lt;font style=&quot;font-size: 7px;&quot;&gt;All outbound connections &quot;message queues&quot;&lt;/font&gt;&lt;/p&gt;" style="text;html=1;align=center;verticalAlign=middle;whiteSpace=wrap;rounded=0;" vertex="1" parent="1">
          <mxGeometry x="210" y="815" width="60" height="30" as="geometry" />
        </mxCell>
        <mxCell id="hu3fXtgD86G4Ef5RLEv7-74" value="" style="rounded=1;whiteSpace=wrap;html=1;" vertex="1" parent="1">
          <mxGeometry x="434" y="740" width="66" height="40" as="geometry" />
        </mxCell>
        <mxCell id="hu3fXtgD86G4Ef5RLEv7-75" value="Email Server" style="text;html=1;align=center;verticalAlign=middle;whiteSpace=wrap;rounded=0;" vertex="1" parent="1">
          <mxGeometry x="437" y="745" width="60" height="30" as="geometry" />
        </mxCell>
        <mxCell id="hu3fXtgD86G4Ef5RLEv7-76" style="edgeStyle=orthogonalEdgeStyle;rounded=0;orthogonalLoop=1;jettySize=auto;html=1;exitX=0.25;exitY=0;exitDx=0;exitDy=0;entryX=0.811;entryY=1.046;entryDx=0;entryDy=0;entryPerimeter=0;" edge="1" parent="1" source="hu3fXtgD86G4Ef5RLEv7-74" target="hu3fXtgD86G4Ef5RLEv7-22">
          <mxGeometry relative="1" as="geometry" />
        </mxCell>
        <mxCell id="hu3fXtgD86G4Ef5RLEv7-77" value="&lt;font style=&quot;font-size: 8px;&quot;&gt;Send Emails&lt;/font&gt;" style="text;html=1;align=center;verticalAlign=middle;whiteSpace=wrap;rounded=0;" vertex="1" parent="1">
          <mxGeometry x="445" y="670" width="60" height="30" as="geometry" />
        </mxCell>
        <mxCell id="hu3fXtgD86G4Ef5RLEv7-78" value="" style="rounded=1;whiteSpace=wrap;html=1;" vertex="1" parent="1">
          <mxGeometry x="529" y="740" width="71" height="50" as="geometry" />
        </mxCell>
        <mxCell id="hu3fXtgD86G4Ef5RLEv7-79" value="Template Repository" style="text;html=1;align=center;verticalAlign=middle;whiteSpace=wrap;rounded=0;" vertex="1" parent="1">
          <mxGeometry x="534.5" y="750" width="60" height="30" as="geometry" />
        </mxCell>
        <mxCell id="hu3fXtgD86G4Ef5RLEv7-81" value="&lt;p style=&quot;line-height: 50%;&quot;&gt;&lt;font style=&quot;font-size: 8px;&quot;&gt;Fetch Email Templates&lt;/font&gt;&lt;/p&gt;" style="text;html=1;align=center;verticalAlign=middle;whiteSpace=wrap;rounded=0;rotation=56;" vertex="1" parent="1">
          <mxGeometry x="475.14" y="673.14" width="83.8" height="28" as="geometry" />
        </mxCell>
        <mxCell id="hu3fXtgD86G4Ef5RLEv7-83" value="" style="endArrow=none;dashed=1;html=1;rounded=0;entryX=0.945;entryY=1.006;entryDx=0;entryDy=0;entryPerimeter=0;exitX=0.131;exitY=-0.054;exitDx=0;exitDy=0;exitPerimeter=0;" edge="1" parent="1" source="hu3fXtgD86G4Ef5RLEv7-78" target="hu3fXtgD86G4Ef5RLEv7-22">
          <mxGeometry width="50" height="50" relative="1" as="geometry">
            <mxPoint x="420" y="710" as="sourcePoint" />
            <mxPoint x="470" y="660" as="targetPoint" />
          </mxGeometry>
        </mxCell>
        <mxCell id="hu3fXtgD86G4Ef5RLEv7-86" value="" style="endArrow=classic;html=1;rounded=0;entryX=0.945;entryY=1.005;entryDx=0;entryDy=0;entryPerimeter=0;" edge="1" parent="1" target="hu3fXtgD86G4Ef5RLEv7-22">
          <mxGeometry width="50" height="50" relative="1" as="geometry">
            <mxPoint x="467" y="628" as="sourcePoint" />
            <mxPoint x="490" y="610" as="targetPoint" />
            <Array as="points" />
          </mxGeometry>
        </mxCell>
        <mxCell id="hu3fXtgD86G4Ef5RLEv7-90" value="" style="shape=cylinder3;whiteSpace=wrap;html=1;boundedLbl=1;backgroundOutline=1;size=15;" vertex="1" parent="1">
          <mxGeometry x="690" y="492.25" width="80" height="64.25" as="geometry" />
        </mxCell>
        <mxCell id="hu3fXtgD86G4Ef5RLEv7-91" value="Cosmos DB" style="text;html=1;align=center;verticalAlign=middle;whiteSpace=wrap;rounded=0;" vertex="1" parent="1">
          <mxGeometry x="692.5" y="522.25" width="75" height="30" as="geometry" />
        </mxCell>
        <mxCell id="hu3fXtgD86G4Ef5RLEv7-92" value="" style="shape=cylinder3;whiteSpace=wrap;html=1;boundedLbl=1;backgroundOutline=1;size=15;" vertex="1" parent="1">
          <mxGeometry x="690" y="562.25" width="80" height="64.25" as="geometry" />
        </mxCell>
        <mxCell id="hu3fXtgD86G4Ef5RLEv7-93" value="MongoDB" style="text;html=1;align=center;verticalAlign=middle;whiteSpace=wrap;rounded=0;" vertex="1" parent="1">
          <mxGeometry x="700" y="591.5" width="60" height="30" as="geometry" />
        </mxCell>
        <mxCell id="hu3fXtgD86G4Ef5RLEv7-94" value="" style="shape=cylinder3;whiteSpace=wrap;html=1;boundedLbl=1;backgroundOutline=1;size=15;" vertex="1" parent="1">
          <mxGeometry x="690" y="632.25" width="80" height="64" as="geometry" />
        </mxCell>
        <mxCell id="hu3fXtgD86G4Ef5RLEv7-95" value="Amazon S3" style="text;html=1;align=center;verticalAlign=middle;whiteSpace=wrap;rounded=0;" vertex="1" parent="1">
          <mxGeometry x="700" y="662.25" width="60" height="30" as="geometry" />
        </mxCell>
        <mxCell id="hu3fXtgD86G4Ef5RLEv7-97" value="" style="endArrow=none;dashed=1;html=1;rounded=0;exitX=1;exitY=0.5;exitDx=0;exitDy=0;entryX=0;entryY=0.5;entryDx=0;entryDy=0;entryPerimeter=0;" edge="1" parent="1" source="hu3fXtgD86G4Ef5RLEv7-22" target="hu3fXtgD86G4Ef5RLEv7-92">
          <mxGeometry width="50" height="50" relative="1" as="geometry">
            <mxPoint x="490" y="590" as="sourcePoint" />
            <mxPoint x="680" y="580" as="targetPoint" />
          </mxGeometry>
        </mxCell>
        <mxCell id="hu3fXtgD86G4Ef5RLEv7-99" value="" style="endArrow=none;dashed=1;html=1;rounded=0;entryX=0;entryY=1;entryDx=0;entryDy=-15;entryPerimeter=0;exitX=1;exitY=0.5;exitDx=0;exitDy=0;" edge="1" parent="1" source="hu3fXtgD86G4Ef5RLEv7-22" target="hu3fXtgD86G4Ef5RLEv7-90">
          <mxGeometry width="50" height="50" relative="1" as="geometry">
            <mxPoint x="570" y="650" as="sourcePoint" />
            <mxPoint x="620" y="600" as="targetPoint" />
          </mxGeometry>
        </mxCell>
        <mxCell id="hu3fXtgD86G4Ef5RLEv7-100" value="" style="endArrow=none;dashed=1;html=1;rounded=0;exitX=1;exitY=0.5;exitDx=0;exitDy=0;entryX=0;entryY=0;entryDx=0;entryDy=15;entryPerimeter=0;" edge="1" parent="1" source="hu3fXtgD86G4Ef5RLEv7-22" target="hu3fXtgD86G4Ef5RLEv7-94">
          <mxGeometry width="50" height="50" relative="1" as="geometry">
            <mxPoint x="570" y="620" as="sourcePoint" />
            <mxPoint x="620" y="570" as="targetPoint" />
          </mxGeometry>
        </mxCell>
        <mxCell id="hu3fXtgD86G4Ef5RLEv7-103" value="Store Email Templates" style="text;html=1;align=center;verticalAlign=middle;whiteSpace=wrap;rounded=0;fontSize=7;rotation=347;" vertex="1" parent="1">
          <mxGeometry x="505" y="551" width="120" height="30" as="geometry" />
        </mxCell>
        <mxCell id="hu3fXtgD86G4Ef5RLEv7-104" value="Save Message Logs" style="text;html=1;align=center;verticalAlign=middle;whiteSpace=wrap;rounded=0;fontSize=7;rotation=0;" vertex="1" parent="1">
          <mxGeometry x="505" y="574.25" width="120" height="30" as="geometry" />
        </mxCell>
        <mxCell id="hu3fXtgD86G4Ef5RLEv7-105" value="Save Attachments/Files" style="text;html=1;align=center;verticalAlign=middle;whiteSpace=wrap;rounded=0;fontSize=7;rotation=13;" vertex="1" parent="1">
          <mxGeometry x="505" y="596.5" width="120" height="30" as="geometry" />
        </mxCell>
        <mxCell id="hu3fXtgD86G4Ef5RLEv7-106" value="" style="endArrow=classic;html=1;rounded=0;exitX=0.75;exitY=0;exitDx=0;exitDy=0;entryX=0.039;entryY=1.012;entryDx=0;entryDy=0;entryPerimeter=0;" edge="1" parent="1" source="hu3fXtgD86G4Ef5RLEv7-42" target="hu3fXtgD86G4Ef5RLEv7-22">
          <mxGeometry width="50" height="50" relative="1" as="geometry">
            <mxPoint x="330" y="710" as="sourcePoint" />
            <mxPoint x="380" y="660" as="targetPoint" />
          </mxGeometry>
        </mxCell>
        <mxCell id="hu3fXtgD86G4Ef5RLEv7-107" value="" style="rounded=1;whiteSpace=wrap;html=1;" vertex="1" parent="1">
          <mxGeometry x="345" y="860" width="60" height="40" as="geometry" />
        </mxCell>
        <mxCell id="hu3fXtgD86G4Ef5RLEv7-108" value="Monitoring Service" style="text;html=1;align=center;verticalAlign=middle;whiteSpace=wrap;rounded=0;" vertex="1" parent="1">
          <mxGeometry x="345" y="865" width="60" height="30" as="geometry" />
        </mxCell>
        <mxCell id="hu3fXtgD86G4Ef5RLEv7-109" value="" style="rounded=1;whiteSpace=wrap;html=1;" vertex="1" parent="1">
          <mxGeometry x="420" y="860" width="60" height="40" as="geometry" />
        </mxCell>
        <mxCell id="hu3fXtgD86G4Ef5RLEv7-110" value="BI service" style="text;html=1;align=center;verticalAlign=middle;whiteSpace=wrap;rounded=0;" vertex="1" parent="1">
          <mxGeometry x="420" y="865" width="60" height="30" as="geometry" />
        </mxCell>
        <mxCell id="hu3fXtgD86G4Ef5RLEv7-114" value="" style="endArrow=classic;html=1;rounded=0;entryX=0;entryY=1;entryDx=0;entryDy=-15;entryPerimeter=0;" edge="1" parent="1" target="hu3fXtgD86G4Ef5RLEv7-90">
          <mxGeometry width="50" height="50" relative="1" as="geometry">
            <mxPoint x="680" y="544" as="sourcePoint" />
            <mxPoint x="700" y="520" as="targetPoint" />
          </mxGeometry>
        </mxCell>
        <mxCell id="hu3fXtgD86G4Ef5RLEv7-115" value="" style="endArrow=classic;html=1;rounded=0;entryX=0;entryY=0.5;entryDx=0;entryDy=0;entryPerimeter=0;" edge="1" parent="1" target="hu3fXtgD86G4Ef5RLEv7-92">
          <mxGeometry width="50" height="50" relative="1" as="geometry">
            <mxPoint x="680" y="594" as="sourcePoint" />
            <mxPoint x="700" y="552" as="targetPoint" />
          </mxGeometry>
        </mxCell>
        <mxCell id="hu3fXtgD86G4Ef5RLEv7-116" value="" style="endArrow=classic;html=1;rounded=0;entryX=0;entryY=0;entryDx=0;entryDy=15;entryPerimeter=0;" edge="1" parent="1" target="hu3fXtgD86G4Ef5RLEv7-94">
          <mxGeometry width="50" height="50" relative="1" as="geometry">
            <mxPoint x="680" y="645" as="sourcePoint" />
            <mxPoint x="700" y="604" as="targetPoint" />
          </mxGeometry>
        </mxCell>
        <mxCell id="hu3fXtgD86G4Ef5RLEv7-117" style="edgeStyle=orthogonalEdgeStyle;rounded=0;orthogonalLoop=1;jettySize=auto;html=1;exitX=0.25;exitY=1;exitDx=0;exitDy=0;entryX=0.84;entryY=-0.011;entryDx=0;entryDy=0;entryPerimeter=0;" edge="1" parent="1" source="hu3fXtgD86G4Ef5RLEv7-22" target="hu3fXtgD86G4Ef5RLEv7-107">
          <mxGeometry relative="1" as="geometry" />
        </mxCell>
        <mxCell id="hu3fXtgD86G4Ef5RLEv7-119" value="&lt;font style=&quot;font-size: 8px;&quot;&gt;Logs&lt;/font&gt;" style="text;html=1;align=center;verticalAlign=middle;whiteSpace=wrap;rounded=0;" vertex="1" parent="1">
          <mxGeometry x="355" y="820" width="60" height="30" as="geometry" />
        </mxCell>
        <mxCell id="hu3fXtgD86G4Ef5RLEv7-120" value="&lt;font style=&quot;font-size: 8px;&quot;&gt;Metrics&lt;/font&gt;" style="text;html=1;align=center;verticalAlign=middle;whiteSpace=wrap;rounded=0;" vertex="1" parent="1">
          <mxGeometry x="405" y="820" width="60" height="30" as="geometry" />
        </mxCell>
      </root>
    </mxGraphModel>
  </diagram>
</mxfile>
